<svg width="26" height="26" viewBox="0 0 26 26" fill="none" xmlns="http://www.w3.org/2000/svg">
<path d="M1 18.3333V22.3333C1 23.8061 2.19391 25 3.66667 25H22.3333C23.8061 25 25 23.8061 25 22.3333V18.3333M1 18.3333V3.66667C1 2.19391 2.19391 1 3.66667 1H22.3333C23.8061 1 25 2.19391 25 3.66667V18.3333M1 18.3333L7.11438 12.219C8.15578 11.1776 9.84422 11.1776 10.8856 12.219L15.6667 17M19.6667 21L15.6667 17M15.6667 17L17.781 14.8856C18.8224 13.8442 20.5109 13.8442 21.5523 14.8856L25 18.3333M21 7C21 8.10457 20.1046 9 19 9C17.8954 9 17 8.10457 17 7C17 5.89543 17.8954 5 19 5C20.1046 5 21 5.89543 21 7Z" stroke="#7989EC" stroke-width="2" stroke-linecap="round" stroke-linejoin="round"/>
</svg>
