<svg width="20" height="20" viewBox="0 0 20 20" fill="none" xmlns="http://www.w3.org/2000/svg">
<path d="M8.74991 8.75L10.4881 7.01184C11.1389 6.36097 12.1942 6.36097 12.8451 7.01185L12.9881 7.15482C13.6389 7.8057 13.6389 8.86097 12.9881 9.51184L11.2499 11.25M8.74991 8.75L2.84509 14.6548C2.19422 15.3057 2.19422 16.361 2.84509 17.0118L2.98807 17.1548C3.63894 17.8057 4.69422 17.8057 5.34509 17.1548L11.2499 11.25M8.74991 8.75L11.2499 11.25M6.91603 6.96435L4.99991 6.15445M9.44982 4.42916L8.6752 2.5M13.0378 4.42916L13.8124 2.5M15.5703 6.96127L17.491 6.16242M15.5703 10.5388L17.4999 11.3162M13.0348 13.0721L13.8125 15" stroke="#686B6E" stroke-width="1.5" stroke-linecap="round" stroke-linejoin="round"/>
</svg>
