<svg width="20" height="20" viewBox="0 0 20 20" fill="none" xmlns="http://www.w3.org/2000/svg">
<path d="M8.49994 8.5L10.5857 6.41421C11.3668 5.63316 12.6331 5.63317 13.4142 6.41421L13.5857 6.58579C14.3668 7.36684 14.3668 8.63316 13.5857 9.41421L11.4999 11.5M8.49994 8.5L1.41416 15.5858C0.633107 16.3668 0.633107 17.6332 1.41416 18.4142L1.58573 18.5858C2.36678 19.3668 3.63311 19.3668 4.41416 18.5858L11.4999 11.5M8.49994 8.5L11.4999 11.5M6.29928 6.35722L3.99994 5.38534M9.33984 3.31499L8.41029 1M13.6454 3.31499L14.575 1M16.6845 6.35353L18.9893 5.3949M16.6845 10.6465L18.9999 11.5794M13.6418 13.6865L14.5751 16" stroke="#686B6E" stroke-width="1.5" stroke-linecap="round" stroke-linejoin="round"/>
</svg>
