<svg width="20" height="18" viewBox="0 0 20 18" fill="none" xmlns="http://www.w3.org/2000/svg">
<path d="M1 3H11M19 3H15M1 9H5M19 9H9M1 15H13M19 15H17M9 9C9 10.1046 8.10457 11 7 11C5.89543 11 5 10.1046 5 9M9 9C9 7.89543 8.10457 7 7 7C5.89543 7 5 7.89543 5 9M15 3C15 4.10457 14.1046 5 13 5C11.8954 5 11 4.10457 11 3M15 3C15 1.89543 14.1046 1 13 1C11.8954 1 11 1.89543 11 3M17 15C17 16.1046 16.1046 17 15 17C13.8954 17 13 16.1046 13 15M17 15C17 13.8954 16.1046 13 15 13C13.8954 13 13 13.8954 13 15" stroke="#686B6E" stroke-width="1.5" stroke-linecap="round" stroke-linejoin="round"/>
</svg>
