<svg width="18" height="18" viewBox="0 0 18 18" fill="none" xmlns="http://www.w3.org/2000/svg">
<path d="M8.08075 1.64067C8.42084 0.786422 9.57916 0.786422 9.91924 1.64067L11.3998 5.3597C11.5432 5.71983 11.8674 5.96589 12.2395 5.99706L16.0826 6.31894C16.9653 6.39288 17.3232 7.54379 16.6507 8.14568L13.7227 10.766C13.4392 11.0198 13.3153 11.4179 13.402 11.7973L14.2965 15.7153C14.502 16.6152 13.5649 17.3265 12.8091 16.8443L9.51895 14.7447C9.20035 14.5414 8.79965 14.5414 8.48105 14.7447L5.19086 16.8443C4.43511 17.3265 3.49801 16.6152 3.70349 15.7153L4.59804 11.7973C4.68466 11.4179 4.56084 11.0198 4.27731 10.766L1.34931 8.14568C0.676755 7.54379 1.03469 6.39288 1.91743 6.31894L5.76049 5.99706C6.13263 5.96589 6.4568 5.71983 6.60017 5.3597L8.08075 1.64067Z" stroke="#686B6E" stroke-width="1.5" stroke-linecap="round" stroke-linejoin="round"/>
</svg>
